<?xml version="1.0" standalone="no"?>
<!DOCTYPE svg PUBLIC "-//W3C//DTD SVG 20010904//EN"
 "http://www.w3.org/TR/2001/REC-SVG-20010904/DTD/svg10.dtd">
<svg version="1.0" xmlns="http://www.w3.org/2000/svg"
 width="180.000000pt" height="180.000000pt" viewBox="0 0 180.000000 180.000000"
 preserveAspectRatio="xMidYMid meet">
<metadata>
Created by potrace 1.14, written by Peter Selinger 2001-2017
</metadata>
<g transform="translate(0.000000,180.000000) scale(0.100000,-0.100000)"
fill="#000000" stroke="none">
<path d="M210 1074 c0 -577 2 -622 19 -659 22 -48 74 -96 143 -131 62 -31 514
-204 534 -204 21 0 458 166 529 201 73 36 131 87 150 134 13 29 15 135 15 655
0 341 -2 620 -5 620 -3 0 -72 -11 -153 -24 -390 -65 -714 -65 -1077 0 -44 7
-97 17 -117 20 l-38 7 0 -619z m215 517 c216 -35 349 -44 554 -38 179 5 383
27 513 56 23 5 46 8 50 5 11 -7 10 -281 -1 -288 -16 -10 -242 -45 -390 -61
-239 -25 -467 -14 -756 36 l-125 22 0 149 c0 138 1 149 18 144 9 -3 71 -14
137 -25z m467 -438 c17 -15 19 -15 36 0 15 14 40 17 125 17 l107 0 0 -175 0
-175 -101 0 c-77 0 -108 -4 -130 -17 -26 -16 -29 -16 -47 0 -15 14 -39 17
-120 17 l-102 0 0 175 0 175 107 0 c85 0 110 -3 125 -17z m-157 -391 c111 -2
132 -5 150 -22 20 -19 20 -19 45 0 22 17 42 20 153 20 l127 0 0 190 0 190 25
-16 25 -16 0 -199 0 -199 -147 0 c-141 -1 -149 -2 -177 -25 l-30 -24 -29 25
c-27 23 -34 24 -178 24 l-149 0 0 196 c0 191 1 196 23 214 l22 18 5 -186 5
-187 130 -3z m-355 318 c123 -20 110 -4 110 -141 0 -110 -2 -120 -17 -116 -10
3 -36 8 -58 11 -22 4 -64 11 -92 17 l-53 10 0 121 c0 120 0 120 23 115 12 -3
51 -11 87 -17z m1160 -100 c0 -116 -1 -120 -22 -125 -27 -6 -188 -35 -194 -35
-4 0 -6 240 -1 241 45 9 195 37 205 38 9 1 12 -29 12 -119z m-933 -375 c253
-30 512 -21 801 29 114 19 135 21 139 9 10 -25 -6 -172 -21 -201 -20 -38 -75
-86 -134 -116 -53 -27 -468 -186 -485 -186 -14 0 -398 146 -472 179 -128 59
-165 114 -165 249 l0 89 100 -18 c54 -10 161 -25 237 -34z"/>
<path d="M481 1515 c-6 -16 -14 -36 -16 -42 -3 -8 -23 -13 -52 -13 -51 -1 -51
-2 11 -43 16 -11 17 -17 7 -52 -6 -21 -9 -41 -6 -43 2 -2 17 5 33 17 37 26 40
26 72 1 36 -28 39 -25 27 21 -10 41 -9 43 24 70 l34 28 -47 1 c-31 0 -48 4
-48 13 -1 6 -7 26 -14 42 l-14 30 -11 -30z"/>
<path d="M1301 1500 c-12 -39 -13 -40 -59 -40 l-47 -1 37 -30 c33 -27 36 -33
28 -55 -19 -50 -13 -58 25 -34 l35 22 35 -22 c38 -24 44 -16 25 34 -8 22 -5
28 28 55 l37 30 -47 1 c-46 0 -47 1 -59 40 -7 22 -15 40 -19 40 -4 0 -12 -18
-19 -40z"/>
<path d="M890 1471 c-13 -40 -15 -41 -57 -41 -51 0 -54 -8 -13 -35 32 -21 36
-38 20 -81 -6 -15 -9 -28 -7 -30 2 -2 19 7 39 21 l35 24 38 -26 38 -26 -7 24
c-3 13 -9 34 -12 46 -4 16 2 27 25 44 41 30 39 39 -9 39 -38 0 -42 3 -58 41
l-18 42 -14 -42z"/>
<path d="M474 579 c-11 -19 6 -159 21 -159 14 0 30 125 19 153 -7 19 -29 23
-40 6z"/>
<path d="M1301 571 c-12 -21 6 -151 20 -151 9 0 23 119 18 145 -6 26 -26 29
-38 6z"/>
<path d="M886 541 c-19 -20 -19 -21 0 -173 8 -72 29 -78 38 -10 17 133 18 173
6 187 -16 20 -23 19 -44 -4z"/>
<path d="M376 501 c-12 -19 6 -41 33 -39 20 2 27 -2 29 -19 4 -30 32 -30 32 0
0 36 -27 67 -60 67 -16 0 -31 -4 -34 -9z"/>
<path d="M537 492 c-21 -23 -23 -72 -3 -72 8 0 16 10 18 23 2 16 10 22 28 22
18 0 26 6 28 23 3 18 -1 22 -26 22 -16 0 -36 -8 -45 -18z"/>
<path d="M1202 488 c2 -18 9 -22 30 -20 22 2 29 -2 34 -23 9 -36 24 -31 24 8
0 42 -15 57 -58 57 -29 0 -33 -3 -30 -22z"/>
<path d="M1362 498 c-14 -14 -16 -78 -3 -78 5 0 12 11 15 25 5 21 12 25 34 23
21 -2 28 2 30 20 3 19 -1 22 -30 22 -19 0 -39 -5 -46 -12z"/>
<path d="M740 410 c0 -34 22 -49 45 -30 21 18 45 -4 45 -41 0 -22 5 -29 20
-29 17 0 20 7 20 39 0 59 -30 91 -86 91 -42 0 -44 -1 -44 -30z"/>
<path d="M962 410 c-28 -37 -27 -93 1 -98 12 -3 17 3 17 20 0 13 7 31 14 41
12 15 18 17 36 7 27 -14 52 4 48 34 -2 17 -11 22 -48 24 -41 3 -48 0 -68 -28z"/>
<path d="M420 391 c0 -5 7 -14 16 -22 13 -10 17 -10 25 2 14 23 11 29 -16 29
-14 0 -25 -4 -25 -9z"/>
<path d="M477 373 c-6 -33 10 -58 28 -43 15 12 7 70 -10 70 -7 0 -15 -12 -18
-27z"/>
<path d="M522 383 c2 -10 10 -18 18 -18 8 0 16 8 18 18 2 12 -3 17 -18 17 -15
0 -20 -5 -18 -17z"/>
<path d="M1250 391 c0 -13 26 -32 33 -24 14 13 6 33 -13 33 -11 0 -20 -4 -20
-9z"/>
<path d="M1305 369 c-8 -34 8 -60 25 -43 11 11 2 74 -10 74 -5 0 -11 -14 -15
-31z"/>
<path d="M1350 387 c0 -21 12 -28 27 -16 19 16 16 29 -7 29 -11 0 -20 -6 -20
-13z"/>
<path d="M810 271 c0 -10 7 -24 15 -31 19 -16 45 3 45 31 0 14 -7 19 -30 19
-23 0 -30 -5 -30 -19z"/>
<path d="M890 262 c0 -15 -5 -33 -12 -40 -9 -9 -7 -16 7 -32 18 -20 19 -20 38
-2 15 16 17 24 8 40 -6 11 -11 30 -11 41 0 12 -7 21 -15 21 -10 0 -15 -10 -15
-28z"/>
<path d="M943 274 c-3 -8 1 -23 10 -32 15 -14 18 -14 37 3 11 10 20 24 20 32
0 19 -59 17 -67 -3z"/>
</g>
</svg>
